<svg xmlns="http://www.w3.org/2000/svg" viewBox="0 0 939 469"><g fill="none" stroke-width="2"><path stroke="#d4d4d4" d="M.81 0Q.11.55.33 1.29q.21.69.21.95C.33 16.35.99 31.95.99 44.51q.06 104.07-.05 208.14c-.02 11.03-.37 25.44-.28 38.16.35 53.28.35 106.51-.12 159.78q-.08 8.04-.13 16.13a1 1 0 0 0 1.01 1.01q6.86-.09 13.72.05 10.58.22 14.73.22h907.88a1 1 0 0 0 1-1l-.29-467" vector-effect="non-scaling-stroke"/><path stroke="#d4d4d4" d="M11.06 0q5.13.63 10.25 0M3.23 1.74a1 .99-.8 0 0-1 1.02q.24 9.5.07 18.99c-1.46 80.48-.81 154.58-.42 216.56.5 77.76-.57 141.3.53 217.99q.04 2.25-.1 4.77-.11 2.15-.19 4.23a1 1 0 0 0 1 1.04q6.54-.02 13.08-.16 8.43-.19 13.61-.19 452.82.04 905.69-.02a1 1 0 0 0 1-1V2.75a1 .99 0 0 0-1-.99L3.23 1.74" vector-effect="non-scaling-stroke"/><path stroke="#f18b9e" d="M586.64 208.15q-1.05-5.45-4.73-8.95-3.59-3.43-9.19-3.84c-15.52-1.14-17.88 16.13-16.1 27.47q2.4 15.34 8.44 28.6a1 .99-18.3 0 0 1.13.56c13.82-3.11 47.34-13.64 43.84-33.05-1.42-7.89-7.52-12.28-15.53-11.36q-2.23.26-6.64 1.35a1 1 0 0 1-1.22-.78" vector-effect="non-scaling-stroke"/><path stroke="#8a9cbf" d="M103.72 232.38c-12.41-6.22-29.94-7.39-43.54-6.33-20.59 1.62-33.43 13.73-36.92 33.7q-3.21 18.36-.87 38.32c2.86 24.3 14.59 37.19 39.01 39.33 11.52 1 32.04 0 42.32-6.32a1 1 0 0 0 .47-.96q-.46-3.96-1.23-7.63c-.73-3.5-.76-6.13-5.29-4.63q-15.26 5.09-32.35 3.9c-17.15-1.18-22.62-11.64-24.05-27.26q-1.27-14.01.35-27.99c1.95-16.71 9.73-24.71 27.14-25.07q15.65-.32 30.47 4.7 2.6.88 2.99-1.34l2.03-11.35a1 .99 19 0 0-.53-1.07" vector-effect="non-scaling-stroke"/><path stroke="#81b5da" d="M605.7 296.71c3.56 28.58 16.61 40.76 45.89 41.03 12.1.11 24.3-1.78 35.6-6.33a1.01 1.01 0 0 0 .61-1.12l-2.2-11.32q-.47-2.42-3.11-1.54c-12.17 4.03-29.23 6.77-41.74 3.07-19.27-5.69-17.72-37.24-15.98-52.17 1.78-15.3 6.71-25.18 22.97-26.54q17.61-1.48 34.32 4.24 3.1 1.06 3.61-1.73l2.05-11.21a1.01.99-74.7 0 0-.63-1.12q-16.53-6.19-33.85-6.23c-27.57-.06-42.95 9.84-47.15 38.05q-2.44 16.44-.39 32.92" vector-effect="non-scaling-stroke"/><path stroke="#8a9cbf" d="m532.8 272.4 21.01-.2a1 1 0 0 0 .97-.83q1.01-5.97.06-12a1 .99-4.3 0 0-.99-.84l-21.1-.07a.99.99 0 0 1-.99-.99l-.03-22.22q0-3.5-3.23-2.78l-12.03 2.67q-2.17.48-2.18 2.82-.14 40.35.04 80.6c.11 22.82 26.25 21.72 41.02 17.05q2.49-.79 2.03-2.88l-2.1-9.52a1 1 0 0 0-1.28-.73c-6.1 1.91-22.06 5.27-22.15-5.54q-.19-21.78-.05-43.55a1.01 1 0 0 1 1-.99M114.52 292c-.84 24.3 1.91 45.79 31.87 46.78 17.47.58 33.85-4.66 36.76-24.51 1.91-13.05 2.37-33.27-3.81-44.12-8.02-14.07-27.12-15.27-41.65-12.45-18.32 3.55-22.61 17.87-23.17 34.3m149.78-16.05c-.26-25.34-34.83-19.85-49.65-16.94-6.02 1.18-15.86 4.12-15.87 10.56q-.07 32.43-.01 64.33 0 2.87 2.73 2.86l13.4-.05a1.01 1 4.7 0 0 .99-.83q.32-1.93.32-5.14-.03-28.38.1-56.84a1.01 1.01 0 0 1 .73-.96q10.22-2.9 20.9-2.65c9.05.22 8.95 6.76 8.99 14.39q.13 24.53.07 49.35-.01 2.74 2.74 2.73l12.52-.03q2.18-.01 2.19-2.27.15-29.28-.15-58.51m32.98-3.25q8.49-1.97 17.24-2.4c7.32-.35 12.74 1.11 12.74 9.46q.02 26.71 0 54.52 0 2.6 2.23 2.58l14.22-.09a1 .99-.3 0 0 .99-.99q.15-30.11-.04-60.34c-.12-19.63-22.24-19.71-35.89-18.35-6.57.66-25.13 2.49-28.6 9.24q-1.16 2.24-1.16 4.92-.04 31.34.01 62.78.01 2.73 2.72 2.73l12.52-.03q2.22-.01 2.22-2.48l.03-60.57a1.01 1 83.5 0 1 .77-.98m72.66 58.86c14.14 10.71 37.97 8.23 53.45 1.93a.99.99 0 0 0 .6-1.12l-1.66-8.17q-.73-3.59-4.27-2.43c-9.95 3.25-26.02 5.73-34.78.01q-6.68-4.36-6.89-13.91a1 1 0 0 1 1-1.02l46.86-.14q2.62-.01 2.85-2.5c1.68-18.01.26-40.34-20.83-46.21q-13.92-3.86-28.77.75c-10.93 3.39-16.44 12.28-17.94 23.52-2.06 15.48-2.91 39.23 10.38 49.29m71.7-17.98c2.58 13.34 10.35 22.49 24.34 24.36q17.75 2.37 33.93-4.02a1.01 1.01 0 0 0 .62-1.13l-1.84-9.16q-.6-3-3.87-1.85-11.81 4.15-23.55 2.33c-11.55-1.79-12.59-12.79-13.13-22.04q-.56-9.44 1.26-19.12c3.36-17.83 25.84-12.88 37.65-9.37a1.01 1.01 0 0 0 1.27-.76l2.18-10.3a1 1 0 0 0-.45-1.06c-9.09-5.61-26.32-5.62-36.49-3.89-25.2 4.29-25.7 36.47-21.92 56.01" vector-effect="non-scaling-stroke"/><path stroke="#81b5da" d="M746.4 285.34q-12.44 2.33-24.91 4.57c-10.31 1.86-18.38 3.73-21.59 13.6q-2.46 7.52-.6 17.01c4.42 22.61 37.16 19.87 53.91 15.75 7.2-1.77 11.46-4.87 11.49-12.53q.09-19.7.05-39.42-.03-12.15-1.55-15.97c-7.4-18.54-45.99-11.15-59.78-6.36a.99.99 0 0 0-.67.98q.2 5.83 2.22 11.34a1.01 1 73.2 0 0 1.17.63c7.09-1.63 39.65-10.15 41.1 2.03q.14 1.19-.03 7.41a1 1 0 0 1-.81.96m96.44 22.45a1 1 0 0 1 1-1.04h48.53a1 1 0 0 0 .99-.86q1.88-13.35-.91-26.18c-2.58-11.9-9-19.54-20.92-22.05-14.37-3.04-36.56-1.38-42.76 14.64q-4.03 10.4-3.87 23.34c.26 20.26 3.43 38.85 27.63 42.33q18.75 2.7 35.58-3.67 2.76-1.04 2.27-3.31l-1.71-7.86q-.56-2.58-3.68-1.5c-13.97 4.86-41.43 8.38-42.15-13.84m-62.67 28.7q7.87 1.05 15.69-.04a1.01 1-4 0 0 .87-.99l.05-61.32a1.01 1.01 0 0 1 .83-.98q10.01-1.8 20.14-1.92 2.49-.03 2.49-2.5l-.01-8.99q0-2.93-3.06-2.99c-8.05-.17-31.66 1.61-36.3 8.7q-1.64 2.5-1.64 5.79-.03 31.57.07 64.25a1.01 1 4 0 0 .87.99" vector-effect="non-scaling-stroke"/><path stroke="#8a9cbf" d="m573.67 336.74 14.28-.05a1 .99-.8 0 0 1-1.02c-.03-1.37.29-2.8.29-4.15q.04-34.15-.03-68.38a1 1 0 0 0-1.31-.95l-15.47 5.12a1 .99 81.2 0 0-.69.95l.03 65.74q0 2.75 1.9 2.74" vector-effect="non-scaling-stroke"/><path stroke="#81b5da" d="M908.87 332.65a6.19 6.19 0 0 0-6.19-6.19 6.19 6.19 0 0 0-6.19 6.19 6.19 6.19 0 0 0 6.19 6.19 6.19 6.19 0 0 0 6.19-6.19" vector-effect="non-scaling-stroke"/><path stroke="#8a9cbf" d="M133.03 284.26c-.68 10.42-3.94 36.63 8.99 39.96 11.75 3.02 21.86.46 23.47-13.18q1.51-12.78.13-25.57c-.95-8.92-3.44-14.13-12.79-15.03-10.57-1.01-19.01 1.66-19.8 13.82m245.91 9.36q14.88-.14 29.71-.13a1 1 0 0 0 1-1.03q-.1-3.69-1.09-10.35c-1.1-7.32-4.76-11.04-12.25-11.97-17.18-2.15-20.38 8.21-20.01 22.5a1.01 1.01 0 0 0 .99.98q.88.01 1.65 0" vector-effect="non-scaling-stroke"/><path stroke="#81b5da" d="M720.95 323.07q1.79 1.49 3.96 1.88 10.91 1.95 21.55-1.08a1 1 0 0 0 .73-.95l.22-23.01a1 1 0 0 0-1.14-1q-7.92 1.1-22.03 3.8c-10.05 1.93-9.8 14.96-3.29 20.36m123.98-29.33q15.11.27 30.24-.16a1.01 1-89.4 0 0 .97-.95q.53-10.25-4.25-19.4a.98.95-.7 0 0-.45-.43c-8.45-4.15-24.57-5.42-27.2 6.96q-1.49 6.98-1.42 12.93a1.01.99-88.1 0 0 .91.99q.64.05 1.2.06m63.01 38.92a5.26 5.26 0 0 0-5.26-5.26 5.26 5.26 0 0 0-5.26 5.26 5.26 5.26 0 0 0 5.26 5.26 5.26 5.26 0 0 0 5.26-5.26" vector-effect="non-scaling-stroke"/><path stroke="#81b5da" d="M903.83 333.96c1.01 2.81 1.99 2.49 1.13-.41a.97.89 46.2 0 1-.01-.55q1.44-5.12-4.12-3.83a1 1 0 0 0-.78.99l.09 5.15a.65.65 0 0 0 .19.46c1.31 1.24.03-3.54 2.92-2.4a1.02.99 89.7 0 1 .58.59" vector-effect="non-scaling-stroke"/><path stroke="#81b5da" d="M903.06 329.98q-1.36-.06-1.71.91a1 1 0 0 0 .73 1.32q2.76.59 1.86-1.61a1 1 0 0 0-.88-.62" vector-effect="non-scaling-stroke"/></g><path fill="#fff" d="M0 0h.81Q.11.55.33 1.29q.21.69.21.95C.33 16.35.99 31.95.99 44.51q.06 104.07-.05 208.14c-.02 11.03-.37 25.44-.28 38.16.35 53.28.35 106.51-.12 159.78q-.08 8.04-.13 16.13a1 1 0 0 0 1.01 1.01q6.86-.09 13.72.05 10.58.22 14.73.22h907.88a1 1 0 0 0 1-1l-.29-467h.54v469H0V0Z"/><path fill="#a9a9a9" d="M.81 0h10.25q5.13.63 10.25 0h917.15l.29 467a1 1 0 0 1-1 1H29.87q-4.15 0-14.73-.22-6.86-.14-13.72-.05a1 1 0 0 1-1.01-1.01q.05-8.09.13-16.13c.47-53.27.47-106.5.12-159.78-.09-12.72.26-27.13.28-38.16q.11-104.07.05-208.14C.99 31.95.33 16.35.54 2.24q0-.26-.21-.95Q.11.55.81 0Zm2.42 1.74a1 .99-.8 0 0-1 1.02q.24 9.5.07 18.99c-1.46 80.48-.81 154.58-.42 216.56.5 77.76-.57 141.3.53 217.99q.04 2.25-.1 4.77-.11 2.15-.19 4.23a1 1 0 0 0 1 1.04q6.54-.02 13.08-.16 8.43-.19 13.61-.19 452.82.04 905.69-.02a1 1 0 0 0 1-1V2.75a1 .99 0 0 0-1-.99L3.23 1.74Z"/><path fill="#fff" d="M11.06 0h10.25q-5.12.63-10.25 0ZM3.23 1.74l932.27.02a1 .99 0 0 1 1 .99v462.22a1 1 0 0 1-1 1q-452.87.06-905.69.02-5.18 0-13.61.19-6.54.14-13.08.16a1 1 0 0 1-1-1.04q.08-2.08.19-4.23.14-2.52.1-4.77c-1.1-76.69-.03-140.23-.53-217.99-.39-61.98-1.04-136.08.42-216.56q.17-9.49-.07-18.99a1 .99-.8 0 1 1-1.02Zm583.41 206.41q-1.05-5.45-4.73-8.95-3.59-3.43-9.19-3.84c-15.52-1.14-17.88 16.13-16.1 27.47q2.4 15.34 8.44 28.6a1 .99-18.3 0 0 1.13.56c13.82-3.11 47.34-13.64 43.84-33.05-1.42-7.89-7.52-12.28-15.53-11.36q-2.23.26-6.64 1.35a1 1 0 0 1-1.22-.78Zm-482.92 24.23c-12.41-6.22-29.94-7.39-43.54-6.33-20.59 1.62-33.43 13.73-36.92 33.7q-3.21 18.36-.87 38.32c2.86 24.3 14.59 37.19 39.01 39.33 11.52 1 32.04 0 42.32-6.32a1 1 0 0 0 .47-.96q-.46-3.96-1.23-7.63c-.73-3.5-.76-6.13-5.29-4.63q-15.26 5.09-32.35 3.9c-17.15-1.18-22.62-11.64-24.05-27.26q-1.27-14.01.35-27.99c1.95-16.71 9.73-24.71 27.14-25.07q15.65-.32 30.47 4.7 2.6.88 2.99-1.34l2.03-11.35a1 .99 19 0 0-.53-1.07Zm501.98 64.33c3.56 28.58 16.61 40.76 45.89 41.03 12.1.11 24.3-1.78 35.6-6.33a1.01 1.01 0 0 0 .61-1.12l-2.2-11.32q-.47-2.42-3.11-1.54c-12.17 4.03-29.23 6.77-41.74 3.07-19.27-5.69-17.72-37.24-15.98-52.17 1.78-15.3 6.71-25.18 22.97-26.54q17.61-1.48 34.32 4.24 3.1 1.06 3.61-1.73l2.05-11.21a1.01.99-74.7 0 0-.63-1.12q-16.53-6.19-33.85-6.23c-27.57-.06-42.95 9.84-47.15 38.05q-2.44 16.44-.39 32.92Zm-72.9-24.31 21.01-.2a1 1 0 0 0 .97-.83q1.01-5.97.06-12a1 .99-4.3 0 0-.99-.84l-21.1-.07a.99.99 0 0 1-.99-.99l-.03-22.22q0-3.5-3.23-2.78l-12.03 2.67q-2.17.48-2.18 2.82-.14 40.35.04 80.6c.11 22.82 26.25 21.72 41.02 17.05q2.49-.79 2.03-2.88l-2.1-9.52a1 1 0 0 0-1.28-.73c-6.1 1.91-22.06 5.27-22.15-5.54q-.19-21.78-.05-43.55a1.01 1 0 0 1 1-.99ZM114.52 292c-.84 24.3 1.91 45.79 31.87 46.78 17.47.58 33.85-4.66 36.76-24.51 1.91-13.05 2.37-33.27-3.81-44.12-8.02-14.07-27.12-15.27-41.65-12.45-18.32 3.55-22.61 17.87-23.17 34.3Zm149.78-16.05c-.26-25.34-34.83-19.85-49.65-16.94-6.02 1.18-15.86 4.12-15.87 10.56q-.07 32.43-.01 64.33 0 2.87 2.73 2.86l13.4-.05a1.01 1 4.7 0 0 .99-.83q.32-1.93.32-5.14-.03-28.38.1-56.84a1.01 1.01 0 0 1 .73-.96q10.22-2.9 20.9-2.65c9.05.22 8.95 6.76 8.99 14.39q.13 24.53.07 49.35-.01 2.74 2.74 2.73l12.52-.03q2.18-.01 2.19-2.27.15-29.28-.15-58.51Zm32.98-3.25q8.49-1.97 17.24-2.4c7.32-.35 12.74 1.11 12.74 9.46q.02 26.71 0 54.52 0 2.6 2.23 2.58l14.22-.09a1 .99-.3 0 0 .99-.99q.15-30.11-.04-60.34c-.12-19.63-22.24-19.71-35.89-18.35-6.57.66-25.13 2.49-28.6 9.24q-1.16 2.24-1.16 4.92-.04 31.34.01 62.78.01 2.73 2.72 2.73l12.52-.03q2.22-.01 2.22-2.48l.03-60.57a1.01 1 83.5 0 1 .77-.98Zm72.66 58.86c14.14 10.71 37.97 8.23 53.45 1.93a.99.99 0 0 0 .6-1.12l-1.66-8.17q-.73-3.59-4.27-2.43c-9.95 3.25-26.02 5.73-34.78.01q-6.68-4.36-6.89-13.91a1 1 0 0 1 1-1.02l46.86-.14q2.62-.01 2.85-2.5c1.68-18.01.26-40.34-20.83-46.21q-13.92-3.86-28.77.75c-10.93 3.39-16.44 12.28-17.94 23.52-2.06 15.48-2.91 39.23 10.38 49.29Zm71.7-17.98c2.58 13.34 10.35 22.49 24.34 24.36q17.75 2.37 33.93-4.02a1.01 1.01 0 0 0 .62-1.13l-1.84-9.16q-.6-3-3.87-1.85-11.81 4.15-23.55 2.33c-11.55-1.79-12.59-12.79-13.13-22.04q-.56-9.44 1.26-19.12c3.36-17.83 25.84-12.88 37.65-9.37a1.01 1.01 0 0 0 1.27-.76l2.18-10.3a1 1 0 0 0-.45-1.06c-9.09-5.61-26.32-5.62-36.49-3.89-25.2 4.29-25.7 36.47-21.92 56.01Zm304.76-28.24q-12.44 2.33-24.91 4.57c-10.31 1.86-18.38 3.73-21.59 13.6q-2.46 7.52-.6 17.01c4.42 22.61 37.16 19.87 53.91 15.75 7.2-1.77 11.46-4.87 11.49-12.53q.09-19.7.05-39.42-.03-12.15-1.55-15.97c-7.4-18.54-45.99-11.15-59.78-6.36a.99.99 0 0 0-.67.98q.2 5.83 2.22 11.34a1.01 1 73.2 0 0 1.17.63c7.09-1.63 39.65-10.15 41.1 2.03q.14 1.19-.03 7.41a1 1 0 0 1-.81.96Zm96.44 22.45a1 1 0 0 1 1-1.04h48.53a1 1 0 0 0 .99-.86q1.88-13.35-.91-26.18c-2.58-11.9-9-19.54-20.92-22.05-14.37-3.04-36.56-1.38-42.76 14.64q-4.03 10.4-3.87 23.34c.26 20.26 3.43 38.85 27.63 42.33q18.75 2.7 35.58-3.67 2.76-1.04 2.27-3.31l-1.71-7.86q-.56-2.58-3.68-1.5c-13.97 4.86-41.43 8.38-42.15-13.84Zm-62.67 28.7q7.87 1.05 15.69-.04a1.01 1-4 0 0 .87-.99l.05-61.32a1.01 1.01 0 0 1 .83-.98q10.01-1.8 20.14-1.92 2.49-.03 2.49-2.5l-.01-8.99q0-2.93-3.06-2.99c-8.05-.17-31.66 1.61-36.3 8.7q-1.64 2.5-1.64 5.79-.03 31.57.07 64.25a1.01 1 4 0 0 .87.99Zm-206.5.25 14.28-.05a1 .99-.8 0 0 1-1.02c-.03-1.37.29-2.8.29-4.15q.04-34.15-.03-68.38a1 1 0 0 0-1.31-.95l-15.47 5.12a1 .99 81.2 0 0-.69.95l.03 65.74q0 2.75 1.9 2.74Zm335.2-4.09a6.19 6.19 0 0 0-6.19-6.19 6.19 6.19 0 0 0-6.19 6.19 6.19 6.19 0 0 0 6.19 6.19 6.19 6.19 0 0 0 6.19-6.19Z"/><path fill="#e2173d" d="M587.86 208.93q4.41-1.09 6.64-1.35c8.01-.92 14.11 3.47 15.53 11.36 3.5 19.41-30.02 29.94-43.84 33.05a1 .99-18.3 0 1-1.13-.56q-6.04-13.26-8.44-28.6c-1.78-11.34.58-28.61 16.1-27.47q5.6.41 9.19 3.84 3.68 3.5 4.73 8.95a1 1 0 0 0 1.22.78Z"/><path fill="#15397e" d="M103.72 232.38a1 .99 19 0 1 .53 1.07l-2.03 11.35q-.39 2.22-2.99 1.34-14.82-5.02-30.47-4.7c-17.41.36-25.19 8.36-27.14 25.07q-1.62 13.98-.35 27.99c1.43 15.62 6.9 26.08 24.05 27.26q17.09 1.19 32.35-3.9c4.53-1.5 4.56 1.13 5.29 4.63q.77 3.67 1.23 7.63a1 1 0 0 1-.47.96c-10.28 6.32-30.8 7.32-42.32 6.32-24.42-2.14-36.15-15.03-39.01-39.33q-2.34-19.96.87-38.32c3.49-19.97 16.33-32.08 36.92-33.7 13.6-1.06 31.13.11 43.54 6.33Z"/><path fill="#026bb5" d="M651.59 337.74c-29.28-.27-42.33-12.45-45.89-41.03q-2.05-16.48.39-32.92c4.2-28.21 19.58-38.11 47.15-38.05q17.32.04 33.85 6.23a1.01.99-74.7 0 1 .63 1.12l-2.05 11.21q-.51 2.79-3.61 1.73-16.71-5.72-34.32-4.24c-16.26 1.36-21.19 11.24-22.97 26.54-1.74 14.93-3.29 46.48 15.98 52.17 12.51 3.7 29.57.96 41.74-3.07q2.64-.88 3.11 1.54l2.2 11.32a1.01 1.01 0 0 1-.61 1.12c-11.3 4.55-23.5 6.44-35.6 6.33Z"/><path fill="#15397e" d="M531.8 273.39q-.14 21.77.05 43.55c.09 10.81 16.05 7.45 22.15 5.54a1 1 0 0 1 1.28.73l2.1 9.52q.46 2.09-2.03 2.88c-14.77 4.67-40.91 5.77-41.02-17.05q-.18-40.25-.04-80.6.01-2.34 2.18-2.82l12.03-2.67q3.23-.72 3.23 2.78l.03 22.22a.99.99 0 0 0 .99.99l21.1.07a1 .99-4.3 0 1 .99.84q.95 6.03-.06 12a1 1 0 0 1-.97.83l-21.01.2a1.01 1 0 0 0-1 .99Zm-385.41 65.39c-29.96-.99-32.71-22.48-31.87-46.78.56-16.43 4.85-30.75 23.17-34.3 14.53-2.82 33.63-1.62 41.65 12.45 6.18 10.85 5.72 31.07 3.81 44.12-2.91 19.85-19.29 25.09-36.76 24.51Zm-13.36-54.52c-.68 10.42-3.94 36.63 8.99 39.96 11.75 3.02 21.86.46 23.47-13.18q1.51-12.78.13-25.57c-.95-8.92-3.44-14.13-12.79-15.03-10.57-1.01-19.01 1.66-19.8 13.82Zm81.62-25.25c14.82-2.91 49.39-8.4 49.65 16.94q.3 29.23.15 58.51-.01 2.26-2.19 2.27l-12.52.03q-2.75.01-2.74-2.73.06-24.82-.07-49.35c-.04-7.63.06-14.17-8.99-14.39q-10.68-.25-20.9 2.65a1.01 1.01 0 0 0-.73.96q-.13 28.46-.1 56.84 0 3.21-.32 5.14a1.01 1 4.7 0 1-.99.83l-13.4.05q-2.73.01-2.73-2.86-.06-31.9.01-64.33c.01-6.44 9.85-9.38 15.87-10.56Zm82.63 13.69a1.01 1 83.5 0 0-.77.98l-.03 60.57q0 2.47-2.22 2.48l-12.52.03q-2.71 0-2.72-2.73-.05-31.44-.01-62.78 0-2.68 1.16-4.92c3.47-6.75 22.03-8.58 28.6-9.24 13.65-1.36 35.77-1.28 35.89 18.35q.19 30.23.04 60.34a1 .99-.3 0 1-.99.99l-14.22.09q-2.23.02-2.23-2.58.02-27.81 0-54.52c0-8.35-5.42-9.81-12.74-9.46q-8.75.43-17.24 2.4Zm72.66 58.86c-13.29-10.06-12.44-33.81-10.38-49.29 1.5-11.24 7.01-20.13 17.94-23.52q14.85-4.61 28.77-.75c21.09 5.87 22.51 28.2 20.83 46.21q-.23 2.49-2.85 2.5l-46.86.14a1 1 0 0 0-1 1.02q.21 9.55 6.89 13.91c8.76 5.72 24.83 3.24 34.78-.01q3.54-1.16 4.27 2.43l1.66 8.17a.99.99 0 0 1-.6 1.12c-15.48 6.3-39.31 8.78-53.45-1.93Zm9-37.94q14.88-.14 29.71-.13a1 1 0 0 0 1-1.03q-.1-3.69-1.09-10.35c-1.1-7.32-4.76-11.04-12.25-11.97-17.18-2.15-20.38 8.21-20.01 22.5a1.01 1.01 0 0 0 .99.98q.88.01 1.65 0Zm87.04 44.32c-13.99-1.87-21.76-11.02-24.34-24.36-3.78-19.54-3.28-51.72 21.92-56.01 10.17-1.73 27.4-1.72 36.49 3.89a1 1 0 0 1 .45 1.06l-2.18 10.3a1.01 1.01 0 0 1-1.27.76c-11.81-3.51-34.29-8.46-37.65 9.37q-1.82 9.68-1.26 19.12c.54 9.25 1.58 20.25 13.13 22.04q11.74 1.82 23.55-2.33 3.27-1.15 3.87 1.85l1.84 9.16a1.01 1.01 0 0 1-.62 1.13q-16.18 6.39-33.93 4.02Z"/><path fill="#026bb5" d="M747.21 284.38q.17-6.22.03-7.41c-1.45-12.18-34.01-3.66-41.1-2.03a1.01 1 73.2 0 1-1.17-.63q-2.02-5.51-2.22-11.34a.99.99 0 0 1 .67-.98c13.79-4.79 52.38-12.18 59.78 6.36q1.52 3.82 1.55 15.97.04 19.72-.05 39.42c-.03 7.66-4.29 10.76-11.49 12.53-16.75 4.12-49.49 6.86-53.91-15.75q-1.86-9.49.6-17.01c3.21-9.87 11.28-11.74 21.59-13.6q12.47-2.24 24.91-4.57a1 1 0 0 0 .81-.96Zm-26.26 38.69q1.79 1.49 3.96 1.88 10.91 1.95 21.55-1.08a1 1 0 0 0 .73-.95l.22-23.01a1 1 0 0 0-1.14-1q-7.92 1.1-22.03 3.8c-10.05 1.93-9.8 14.96-3.29 20.36Zm121.89-15.28c.72 22.22 28.18 18.7 42.15 13.84q3.12-1.08 3.68 1.5l1.71 7.86q.49 2.27-2.27 3.31-16.83 6.37-35.58 3.67c-24.2-3.48-27.37-22.07-27.63-42.33q-.16-12.94 3.87-23.34c6.2-16.02 28.39-17.68 42.76-14.64 11.92 2.51 18.34 10.15 20.92 22.05q2.79 12.83.91 26.18a1 1 0 0 1-.99.86h-48.53a1 1 0 0 0-1 1.04Zm2.09-14.05q15.11.27 30.24-.16a1.01 1-89.4 0 0 .97-.95q.53-10.25-4.25-19.4a.98.95-.7 0 0-.45-.43c-8.45-4.15-24.57-5.42-27.2 6.96q-1.49 6.98-1.42 12.93a1.01.99-88.1 0 0 .91.99q.64.05 1.2.06Zm-64.76 42.75a1.01 1 4 0 1-.87-.99q-.1-32.68-.07-64.25 0-3.29 1.64-5.79c4.64-7.09 28.25-8.87 36.3-8.7q3.06.06 3.06 2.99l.01 8.99q0 2.47-2.49 2.5-10.13.12-20.14 1.92a1.01 1.01 0 0 0-.83.98l-.05 61.32a1.01 1-4 0 1-.87.99q-7.82 1.09-15.69.04Z"/><path fill="#15397e" d="M573.67 336.74q-1.9.01-1.9-2.74l-.03-65.74a1 .99 81.2 0 1 .69-.95l15.47-5.12a1 1 0 0 1 1.31.95q.07 34.23.03 68.38c0 1.35-.32 2.78-.29 4.15a1 .99-.8 0 1-1 1.02l-14.28.05Z"/><path fill="#fff" d="M378.94 293.62q-.77.01-1.65 0a1.01 1.01 0 0 1-.99-.98c-.37-14.29 2.83-24.65 20.01-22.5 7.49.93 11.15 4.65 12.25 11.97q.99 6.66 1.09 10.35a1 1 0 0 1-1 1.03q-14.83-.01-29.71.13Zm465.99.12q-.56-.01-1.2-.06a1.01.99-88.1 0 1-.91-.99q-.07-5.95 1.42-12.93c2.63-12.38 18.75-11.11 27.2-6.96a.98.95-.7 0 1 .45.43q4.78 9.15 4.25 19.4a1.01 1-89.4 0 1-.97.95q-15.13.43-30.24.16Zm-702.91 30.48c-12.93-3.33-9.67-29.54-8.99-39.96.79-12.16 9.23-14.83 19.8-13.82 9.35.9 11.84 6.11 12.79 15.03q1.38 12.79-.13 25.57c-1.61 13.64-11.72 16.2-23.47 13.18Zm578.93-1.15c-6.51-5.4-6.76-18.43 3.29-20.36q14.11-2.7 22.03-3.8a1 1 0 0 1 1.14 1l-.22 23.01a1 1 0 0 1-.73.95q-10.64 3.03-21.55 1.08-2.17-.39-3.96-1.88Z"/><path fill="#026bb5" d="M908.87 332.65a6.19 6.19 0 0 1-6.19 6.19 6.19 6.19 0 0 1-6.19-6.19 6.19 6.19 0 0 1 6.19-6.19 6.19 6.19 0 0 1 6.19 6.19Zm-.93.01a5.26 5.26 0 0 0-5.26-5.26 5.26 5.26 0 0 0-5.26 5.26 5.26 5.26 0 0 0 5.26 5.26 5.26 5.26 0 0 0 5.26-5.26Z"/><path fill="#fff" d="M907.94 332.66a5.26 5.26 0 0 1-5.26 5.26 5.26 5.26 0 0 1-5.26-5.26 5.26 5.26 0 0 1 5.26-5.26 5.26 5.26 0 0 1 5.26 5.26Zm-4.11 1.3c1.01 2.81 1.99 2.49 1.13-.41a.97.89 46.2 0 1-.01-.55q1.44-5.12-4.12-3.83a1 1 0 0 0-.78.99l.09 5.15a.65.65 0 0 0 .19.46c1.31 1.24.03-3.54 2.92-2.4a1.02.99 89.7 0 1 .58.59Z"/><path fill="#026bb5" d="M903.25 333.37c-2.89-1.14-1.61 3.64-2.92 2.4a.65.65 0 0 1-.19-.46l-.09-5.15a1 1 0 0 1 .78-.99q5.56-1.29 4.12 3.83a.97.89 46.2 0 0 .01.55c.86 2.9-.12 3.22-1.13.41a1.02.99 89.7 0 0-.58-.59Zm-.19-3.39q-1.36-.06-1.71.91a1 1 0 0 0 .73 1.32q2.76.59 1.86-1.61a1 1 0 0 0-.88-.62Z"/><path fill="#fff" d="M903.94 330.6q.9 2.2-1.86 1.61a1 1 0 0 1-.73-1.32q.35-.97 1.71-.91a1 1 0 0 1 .88.62Z"/></svg>