<?xml version="1.0" encoding="utf-8"?>
<!-- Generator: Adobe Illustrator 19.2.1, SVG Export Plug-In . SVG Version: 6.00 Build 0)  -->
<svg version="1.1" id="layer" xmlns="http://www.w3.org/2000/svg" xmlns:xlink="http://www.w3.org/1999/xlink" x="0px" y="0px"
	 viewBox="0 0 652 652" style="enable-background:new 0 0 652 652;" xml:space="preserve">
<style type="text/css">
	.st0{fill:#4E8416;}
</style>
<path class="st0" d="M189.2,288.5c-2.1,0-3.6,1.5-3.6,3.6v70.3c-5.1,1-10.8,2.1-16.4,2.1c-12.3,0-16.4-4.6-16.4-17.9v-54.4
	c0-2.1-1.5-3.6-3.1-3.6h-18.5v57.9c0,27.2,14.4,35.9,37.4,35.9c18.5,0,36.9-5.1,38.5-5.6v-88.2H189.2z M471.8,381.3
	c1.5,0,3.6-1.5,3.6-3.6v-70.8c5.1-1,10.8-2.1,16.4-2.1c12.3,0,16.4,4.6,16.4,17.9v54.9c0,2.1,1.5,3.6,3.1,3.6h18.5v-58.5
	c0-27.2-14.4-35.9-37.4-35.9c-18.5,0-36.9,5.1-38.5,5.6v88.7H471.8z M397.9,286.9c-24.1,0-39,12.8-39,41v13.8
	c0,30.8,16.4,41,33.8,41c8.7,0,17.9-6.2,20.5-9.7v5.6c0,1.5,1.5,3.1,3.1,3.1c0,0,17.9,0,18.5,0v-89.7
	C435.3,292.1,417.4,286.9,397.9,286.9z M413.8,358.7c-4.1,3.6-7.2,5.6-15.9,5.6c-12.3,0.5-17.4-7.2-17.4-23.1v-12.8
	c0-17.9,6.7-23.1,17.4-23.1c8.7,0,13.8,0.5,15.9,1V358.7z M584.1,286.9c-24.1,0-39,12.8-39,41v13.8c0,30.8,16.4,41,34.4,41
	c8.7,0,17.9-6.2,20.5-9.7v5.6c0,1.5,1.5,3.1,3.1,3.1c0,0,17.9,0,18.5,0v-89.7C621.5,292.1,603.6,286.9,584.1,286.9z M600,358.7
	c-4.1,3.6-7.2,5.6-15.9,5.6c-12.3,0-17.4-7.2-17.4-23.1v-12.8c0-18.5,6.7-23.1,17.4-23.1c8.7,0,13.8,0.5,15.9,1V358.7z M21.5,381.3
	c3.1,0,19.5,0,19.5,0c1.5,0,3.1-1.5,3.1-3.1v-51.3H80c6.2,0,10.3,4.6,10.3,9.7v41.5c0,1.5,1.5,3.1,3.1,3.1c0,0,18.5,0,19.5,0
	c0,0,0-121,0-122.1H93.3c-1.5,0-3.1,1.5-3.1,3.1v46.2H53.3c-5.1,0-8.7-4.1-8.7-8.7v-37.4c-0.5-1-1.5-3.1-3.6-3.1H21.5
	C21.5,260.3,21.5,381.3,21.5,381.3z M310.2,286.9c-10.3,0-20,4.1-24.6,7.2c-6.7-5.1-15.9-7.2-27.2-7.2c-16.9,0-31.3,5.1-33.3,6.2
	v88.7h18.5c2.1,0,3.1-1.5,3.1-3.6v-71.3c4.6-1,8.2-1.5,11.3-1.5c12.8,0,15.9,5.1,15.9,17.9v54.9c0,1.5,1,3.6,3.1,3.6h15.4
	c2.1,0,3.1-1.5,3.1-3.6v-68.7c3.6-2.6,8.2-4.1,12.8-4.1c9.7,0,13.8,4.6,13.8,16.4v56.4c0,1.5,1,3.6,3.1,3.6c0,0,16.9,0,18.5,0v-63.1
	C344.1,295.2,329.2,286.9,310.2,286.9z"/>
</svg>
