<?xml version="1.0" encoding="utf-8"?>
<!-- Generator: Adobe Illustrator 19.2.1, SVG Export Plug-In . SVG Version: 6.00 Build 0)  -->
<svg version="1.1" id="layer" xmlns="http://www.w3.org/2000/svg" xmlns:xlink="http://www.w3.org/1999/xlink" x="0px" y="0px"
	 viewBox="0 0 652 652" style="enable-background:new 0 0 652 652;" xml:space="preserve">
<style type="text/css">
	.st0{fill:#F57E29;}
	.st1{fill:#E0601F;}
	.st2{fill:#FCB515;}
	.st3{fill:#B3B2B1;}
	.st4{fill:#8B8B8E;}
	.st5{fill:#D2D0CE;}
	.st6{fill:#E09E14;}
	.st7{fill:#FFD600;}
	.st8{fill:#F2B411;}
	.st9{fill:#55565A;}
</style>
<g>
	<g>
		<path class="st0" d="M141.1,351.4c-2.8,10.9-5.6,22.1-8.3,33.6c12.1,7.8,24,15.6,35.9,22.2C159.6,389.9,150.5,371,141.1,351.4"/>
		<path class="st1" d="M141.1,351.4c10.8,7.7,21.4,15.6,31.9,22.8c-1.4,10.6-2.9,21.6-4.3,32.9C159.6,389.9,150.5,371,141.1,351.4"
			/>
		<path class="st1" d="M141.1,351.4c-2.8,10.9-5.6,22.1-8.3,33.6c-12.1-7.8-24.5-15.8-36.9-22.8C110.8,357.3,126,353.5,141.1,351.4"
			/>
		<path class="st2" d="M141.1,351.4c-10.8-7.7-21.9-15.4-33.1-22.2c-4.1,10.8-8.1,21.9-12.1,33C110.8,357.3,126,353.5,141.1,351.4"
			/>
		<path class="st0" d="M153.4,306.8c-1.8,6.2-3.7,12.7-5.6,19.3c9.7,7.8,19.2,15.8,28.4,23.5C168.8,336.2,161.2,321.7,153.4,306.8"
			/>
		<path class="st1" d="M153.4,306.8c8.7,7.9,17.2,16,25.4,24c-0.8,6.1-1.7,12.3-2.6,18.8C168.8,336.2,161.2,321.7,153.4,306.8"/>
		<path class="st2" d="M141.1,351.4c2.2-8.7,4.5-17.1,6.8-25.3c9.7,7.8,19.2,15.8,28.4,23.5C164.9,349,153.1,349.6,141.1,351.4"/>
		<path class="st0" d="M141.1,351.4c10.8,7.7,21.4,15.6,31.9,22.8c1.1-8.4,2.2-16.6,3.3-24.6C164.9,349,153.1,349.6,141.1,351.4"/>
		<path class="st3" d="M153.4,306.8c1.5-5.2,3.1-10.2,4.6-15c7.9,7.9,15.5,16.2,22.8,24.3C172.2,311.9,163,308.8,153.4,306.8"/>
		<path class="st4" d="M153.4,306.8c8.7,7.9,17.2,16,25.4,24c0.7-5,1.3-10,2-14.7C172.2,311.9,163,308.8,153.4,306.8"/>
		<path class="st4" d="M153.4,306.8c1.5-5.2,3.1-10.2,4.6-15c-7.9-7.9-16.1-15.6-24.5-22.8C140.3,281.7,147,294.4,153.4,306.8"/>
		<path class="st5" d="M153.4,306.8c-8.7-7.9-17.8-15.5-27-22.6c2.4-5.2,4.7-10.3,7.1-15.2C140.3,281.7,147,294.4,153.4,306.8"/>
		<path class="st1" d="M74.4,311.5c-5.3,11-10.3,22-15.3,32.9c12,4.4,24.4,10.6,36.8,17.7C88.8,344.7,81.6,327.7,74.4,311.5"/>
		<path class="st0" d="M74.4,311.5c11.1,4.7,22.4,10.8,33.6,17.6c-4.1,10.8-8.1,21.9-12.1,33C88.8,344.7,81.6,327.7,74.4,311.5"/>
		<path class="st6" d="M74.4,311.5c-5.3,11-10.3,22-15.3,32.9c-11.9-4.4-23.4-7.1-33.3-7C40,325.9,56.6,317.2,74.4,311.5"/>
		<path class="st7" d="M74.4,311.5c-11-4.7-21.8-7.9-31.7-9.2c-5.9,11.8-11.5,23.6-17,35C40,325.9,56.6,317.2,74.4,311.5"/>
		<path class="st7" d="M98.3,265.3c-3.7,6.5-7.4,13.3-11,20.2c-10.2-5.1-20.4-9-30-11.3C70.2,268.8,84.1,265.8,98.3,265.3"/>
		<path class="st8" d="M98.3,265.3c-9.4-5.5-18.9-10-28.1-13.1c-4.4,7.1-8.7,14.5-12.9,22.1C70.2,268.8,84.1,265.8,98.3,265.3"/>
		<path class="st8" d="M74.4,311.5c4.2-8.7,8.5-17.4,12.9-25.9c-10.2-5.1-20.4-9-30-11.3C62.9,286,68.6,298.5,74.4,311.5"/>
		<path class="st6" d="M74.4,311.5c-11-4.7-21.8-7.9-31.7-9.2c4.7-9.4,9.6-18.8,14.7-28.1C62.9,286,68.6,298.5,74.4,311.5"/>
		<path class="st4" d="M98.3,265.3c3.1-5.4,6.3-10.7,9.5-15.8c8.7,5.8,17.4,12.4,25.8,19.5C122,266.1,110.1,264.9,98.3,265.3"/>
		<path class="st3" d="M98.3,265.3c9.5,5.5,18.9,11.9,28.1,18.9c2.4-5.2,4.7-10.3,7.1-15.2C122,266.1,110.1,264.9,98.3,265.3"/>
		<path class="st8" d="M98.3,265.3c3.1-5.4,6.3-10.7,9.5-15.8c-8.7-5.8-17.5-10.7-26.2-14.6C87.2,244.7,92.8,254.9,98.3,265.3"/>
		<path class="st6" d="M98.3,265.3c-9.4-5.5-18.9-10-28.1-13.1c3.7-5.9,7.5-11.7,11.3-17.3C87.2,244.7,92.8,254.9,98.3,265.3"/>
		<path class="st9" d="M243.7,416.9c-23.3,0-39.6-17.7-39.6-39.2s16.5-39.4,39.8-39.4c23.3,0,39.6,17.7,39.6,39.2
			C283.5,399,267,416.9,243.7,416.9 M243.7,350.7c-15.1,0-25.6,12-25.6,26.9c0,14.9,10.7,27.1,25.8,27.1c15.1,0,25.6-12,25.6-26.9
			C269.5,362.9,258.8,350.7,243.7,350.7"/>
		<path class="st9" d="M324.3,391.2h-15.1v24.4h-13.3v-75.9h29.9c17.7,0,28.8,10,28.8,25.5C354.7,382.3,341,391.2,324.3,391.2
			 M324.7,351.9h-15.5v27.3h15.5c10.1,0,16.4-5.5,16.4-13.7C341.1,356.5,334.7,351.9,324.7,351.9"/>
		<polygon class="st9" points="398.3,415.6 384.8,415.6 384.8,352.1 360.8,352.1 360.8,339.7 422.4,339.7 422.4,352.1 398.3,352.1 
					"/>
		<path class="st9" d="M499.1,382.8c0,22.7-12.8,34.1-32.6,34.1c-19.7,0-32.3-11.4-32.3-33.4v-43.7h13.3v43.2
			c0,14.1,7.3,21.7,19.2,21.7c11.8,0,19.1-7.2,19.1-21.1v-43.7h13.3V382.8z"/>
		<polygon class="st9" points="551,397 550.6,397 526.8,361.4 526.8,415.6 513.7,415.6 513.7,339.7 527.9,339.7 551,375.6 
			574.1,339.7 588.3,339.7 588.3,415.6 575,415.6 575,361.2 		"/>
		<path class="st9" d="M602.9,348.7L602.9,348.7c0-6.3,5-11.5,11.4-11.5c6.4,0,11.4,5.2,11.4,11.4v0.1c0,6.2-5,11.5-11.4,11.5
			C607.9,360.1,602.9,354.9,602.9,348.7 M624.4,348.7L624.4,348.7c0-5.6-4.3-10.2-10.1-10.2c-5.7,0-10.1,4.7-10.1,10.2v0.1
			c0,5.6,4.3,10.1,10.1,10.1C620,358.9,624.4,354.2,624.4,348.7 M610,342.7h5.1c2.4,0,4.3,1.2,4.3,3.5c0,1.9-1.2,3-2.8,3.5l3.2,4.4
			h-2.3l-2.9-4.2h-2.7v4.2H610V342.7z M614.9,348.5c1.6,0,2.6-0.9,2.6-2.1c0-1.4-1-2-2.6-2h-3.1v4.1H614.9z"/>
	</g>
</g>
</svg>
